<svg width="100" height="100" xmlns="http://www.w3.org/2000/svg" xml:space="preserve" enable-background="new 0 0 100 100" version="1.1">

 <g>
  <title>background</title>
  <rect fill="none" id="canvas_background" height="798" width="1449" y="-1" x="-1"/>
 </g>
 <g>
  <title>Layer 1</title>
  <g stroke="null" id="svg_1">
   <g stroke="null" id="svg_2">
    <path stroke="null" id="svg_3" d="m45.566513,8.631171c2.811124,-0.009116 5.632503,-0.132181 8.433372,0.085462c0,1.145188 0,2.290377 0.009116,3.436704c1.060866,0.189155 2.112616,0.35894 3.190574,0.528724c-0.415914,1.940553 -0.775993,3.891361 -1.098469,5.839891c-7.325787,-1.23065 -15.097115,-0.292849 -21.618421,3.360359c-8.026574,4.277649 -13.818606,12.162926 -15.976802,20.956377c-2.026015,-0.075206 -4.031519,-0.036464 -6.057533,-0.046719c0.511631,-2.764405 1.382202,-5.462719 2.4613,-8.03569c-1.041495,-0.587977 -2.063618,-1.203302 -3.037883,-1.893834c1.41069,-2.404326 2.659572,-4.903229 4.259417,-7.193606c1.031239,0.624441 2.082989,1.193047 3.189435,1.675052c2.120593,-3.103973 4.921461,-5.678083 7.876161,-7.969599c-0.643812,-1.041495 -1.278509,-2.090966 -1.665936,-3.255525c2.347351,-1.211279 4.562521,-2.706291 6.929244,-3.899338c1.069982,0.417054 1.362831,1.978156 2.063618,2.877214c3.511911,-1.419806 7.18335,-2.470416 10.960763,-2.905702c0.015953,-1.193047 0.034185,-2.366723 0.082043,-3.559769z" fill="#808184"/>
    <path stroke="null" id="svg_4" d="m80.899846,57.150693c2.045386,-0.009116 4.089633,-0.009116 6.133879,-0.009116c-0.454657,2.745034 -1.457409,5.328259 -2.356467,7.930856c0.842084,0.871711 2.071594,1.23179 2.952421,2.082989c-1.447153,2.21517 -2.592342,4.637728 -4.067982,6.852898c-1.183931,0.095717 -2.168451,-1.0301 -3.237294,-1.475641c-2.301772,3.037883 -5.027434,5.698594 -8.017458,8.053922c0.567466,0.993636 1.134933,1.978156 1.721771,2.971792c-2.271005,1.638588 -4.807512,2.858983 -7.201582,4.29702c-0.662044,-0.956033 -1.268253,-1.949669 -1.770769,-3.000279c-3.578001,1.325228 -7.240325,2.443068 -11.037109,2.88747c-0.019371,1.16342 -0.019371,2.32798 -0.037603,3.4914c-2.802008,0.152692 -5.613132,0.085462 -8.414001,0.037603c-0.028487,-1.16342 -0.047859,-2.338235 -0.047859,-3.49254c-1.079098,-0.189155 -2.158196,-0.378311 -3.237294,-0.538979c0.406798,-1.836859 0.709903,-3.69195 1.098469,-5.52767l0.256385,-0.436425c6.881385,1.496152 14.30061,0.387427 20.566671,-2.800869c8.357026,-4.181932 14.61397,-12.227877 16.69582,-21.324432z" fill="#808184"/>
   </g>
   <g stroke="null" id="svg_5">
    <path stroke="null" id="svg_6" d="m8.073845,49.68247c6.190854,-0.046719 12.389684,0.075206 18.589654,-0.06723c0.321336,6.02107 2.536507,12.059232 6.985079,16.253698c3.142716,3.094857 7.211838,5.185823 11.508858,6.029046c-0.548095,3.284013 -1.305857,6.522446 -1.778745,9.815574c-0.388566,1.83458 -0.690531,3.689671 -1.098469,5.52767c-0.264362,1.257998 -0.511631,2.526251 -0.737251,3.80476c-13.800374,0 -27.600748,0.095717 -41.401122,-0.046719c2.726802,-13.753655 5.272424,-27.544913 7.931996,-41.3168z" fill="#1B75BB"/>
    <path stroke="null" id="svg_7" d="m58.002917,8.839698c13.752515,0.028487 27.495915,0.019371 41.259825,0c-2.535367,13.828861 -5.167591,27.658862 -7.92288,41.447841c-6.218202,-0.084322 -12.427287,-0.018232 -18.636373,-0.037603c0.113949,-10.507245 -7.931996,-20.407142 -18.344664,-22.167655c0.445541,-3.208806 1.193047,-6.360638 1.741142,-9.560328c0.322476,-1.949669 0.682555,-3.899338 1.098469,-5.839891c0.24613,-1.277369 0.511631,-2.564994 0.804481,-3.842363z" fill="#1B75BB"/>
    <path stroke="null" id="svg_8" d="m45.405845,36.933846c7.268812,-2.650456 15.95743,2.166172 17.624505,9.69137c2.044247,7.2973 -3.190574,15.523284 -10.658798,16.76305c-7.079657,1.610101 -14.72792,-3.473168 -16.053147,-10.600684c-1.551987,-6.607908 2.631084,-13.849372 9.08744,-15.853737z" fill="#1B75BB"/>
   </g>
  </g>
 </g>
</svg>