<?xml version="1.0" standalone="no"?>
<!DOCTYPE svg PUBLIC "-//W3C//DTD SVG 20010904//EN"
 "http://www.w3.org/TR/2001/REC-SVG-20010904/DTD/svg10.dtd">
<svg version="1.0" xmlns="http://www.w3.org/2000/svg"
 width="700.000000pt" height="700.000000pt" viewBox="0 0 700.000000 700.000000"
 preserveAspectRatio="xMidYMid meet">
<metadata>
Created by potrace 1.14, written by Peter Selinger 2001-2017
</metadata>
<g transform="translate(0.000000,700.000000) scale(0.100000,-0.100000)"
fill="#000000" stroke="none">
<path d="M3189 6371 c0 -14 -1 -68 -3 -118 -1 -51 -6 -97 -11 -102 -6 -5 -37
-12 -70 -16 -112 -12 -330 -66 -490 -122 -88 -30 -171 -56 -184 -56 -20 -2
-30 9 -58 63 -37 70 -78 120 -100 120 -14 0 -41 -15 -316 -173 -81 -47 -153
-87 -159 -89 -15 -5 10 -70 63 -162 l40 -70 -23 -20 c-13 -12 -62 -54 -109
-94 -145 -121 -328 -314 -401 -422 l-17 -25 -112 58 c-104 53 -112 56 -125 40
-18 -25 -155 -256 -195 -328 -18 -33 -45 -80 -60 -105 -15 -24 -25 -48 -23
-52 3 -4 50 -35 104 -69 55 -33 100 -63 100 -65 0 -2 -13 -36 -29 -76 -56
-143 -148 -465 -135 -477 3 -3 99 -6 214 -7 187 -1 210 1 210 15 0 41 108 330
170 456 58 117 159 287 199 338 6 6 39 48 73 92 60 76 213 236 288 300 85 74
200 154 345 242 45 27 225 113 295 141 132 52 339 106 490 128 192 27 579 25
710 -5 48 -11 49 -11 54 -11 3 0 -3 -35 -18 -110 -3 -13 -8 -42 -12 -64 -3
-22 -7 -43 -9 -46 -2 -3 -6 -22 -9 -42 -3 -21 -10 -57 -15 -80 -5 -24 -12 -59
-15 -78 -3 -19 -10 -60 -16 -90 -6 -30 -13 -78 -16 -105 l-5 -50 94 -22 c52
-13 118 -32 148 -44 80 -30 269 -123 269 -131 0 -5 5 -8 11 -8 22 0 199 -141
285 -226 281 -281 446 -641 470 -1028 2 -43 6 -82 9 -85 2 -4 295 -7 651 -6
l648 0 42 210 c24 116 45 225 48 243 4 18 13 68 22 110 9 42 18 86 20 97 2 11
6 31 9 45 2 14 7 41 10 60 3 19 8 42 10 50 2 8 6 26 9 40 7 42 76 402 86 450
5 25 21 108 36 185 14 77 27 147 29 155 2 8 10 53 19 100 8 47 18 97 21 113 3
15 7 39 10 55 3 15 12 61 20 102 18 94 27 141 30 160 1 8 5 29 8 45 4 17 9 44
12 60 3 17 7 41 10 55 6 31 13 70 20 113 3 17 10 52 15 77 5 25 21 110 35 190
14 80 27 153 29 163 4 16 -70 17 -1439 17 l-1443 0 -13 -52 c-7 -29 -13 -55
-14 -58 -21 -134 -30 -161 -50 -156 -11 2 -38 8 -60 11 -22 4 -64 11 -92 16
l-53 10 0 120 c0 116 -1 119 -22 121 -13 0 -146 2 -295 3 l-273 2 -1 -26z"/>
<path d="M3338 4454 c-319 -51 -578 -245 -719 -539 -26 -55 -55 -129 -64 -165
-9 -36 -19 -74 -22 -85 -3 -11 -7 -74 -9 -140 -4 -170 26 -306 102 -458 127
-252 390 -449 679 -508 143 -29 354 -11 505 43 449 161 723 672 604 1128 -36
138 -84 243 -157 340 -41 55 -175 190 -189 190 -3 0 -13 6 -20 13 -27 28 -155
98 -227 126 -157 60 -330 80 -483 55z"/>
<path d="M599 3522 c-35 -3 -37 -5 -44 -48 -3 -25 -8 -53 -10 -62 -6 -31 -165
-855 -195 -1017 -27 -141 -71 -374 -85 -445 -8 -42 -37 -194 -42 -220 -4 -23
-19 -100 -103 -535 -16 -82 -31 -161 -34 -175 -15 -80 -58 -302 -66 -340 -5
-25 -7 -47 -4 -49 6 -7 2881 -7 2888 0 3 3 16 60 29 127 13 67 27 125 30 129
4 3 55 -2 114 -13 l108 -19 3 -120 c1 -65 4 -121 6 -122 6 -7 566 -4 576 2 6
4 10 58 10 126 0 106 2 119 18 120 9 0 25 2 34 4 9 2 34 5 55 8 131 19 388 87
566 151 l97 35 13 -22 c8 -12 32 -53 55 -92 23 -38 45 -76 50 -83 8 -11 17 -9
50 12 23 14 43 26 46 26 16 0 415 241 416 251 0 4 -27 51 -59 105 l-60 99 27
23 c15 13 54 46 87 74 75 64 316 307 370 373 22 27 49 60 61 73 l21 25 79 -48
c52 -32 91 -48 114 -49 33 -1 37 2 92 94 31 52 66 113 78 135 12 22 48 85 80
140 33 55 60 103 60 107 0 3 -42 33 -94 66 -52 33 -97 65 -100 70 -3 6 23 97
58 203 36 107 67 205 70 219 3 14 7 36 10 50 3 14 9 40 12 58 l6 32 -214 0
-214 0 -14 -52 c-37 -147 -96 -302 -171 -451 -49 -97 -69 -131 -138 -237 -47
-72 -36 -58 -150 -195 -114 -136 -172 -194 -313 -312 -34 -28 -182 -132 -227
-160 -215 -130 -515 -247 -741 -287 -29 -5 -82 -14 -125 -21 -169 -29 -443
-24 -639 10 -72 13 -91 13 -98 3 -4 -7 -8 -8 -8 -3 0 15 48 288 71 401 5 28
12 64 15 80 2 16 12 64 20 107 9 43 14 80 12 82 -2 2 -15 6 -28 9 -170 36
-372 119 -518 213 -211 134 -399 328 -514 531 -101 177 -178 399 -208 597 -5
39 -12 81 -14 95 -3 14 -5 45 -5 70 l-1 45 -617 0 c-340 0 -634 -1 -654 -3z"/>
</g>
</svg>
